{"title":"The.Road.To.El.Dorado.2000.WEB-DL.720p.AC3.H264.FIXED.iSAAC","uid":11391191,"size":2955521654,"categoryP":"video","categoryS":"hd___movies","magnet":"?xt=urn:btih:ed17325a3757ddff1d6e1b5fb3571bc013febef5&amp;dn=The.Road.To.El.Dorado.2000.WEB-DL.720p.AC3.H264.FIXED.iSAAC&amp;tr=udp%3A%2F%2Ftracker.openbittorrent.com%3A80&amp;tr=udp%3A%2F%2Fopen.demonii.com%3A1337&amp;tr=udp%3A%2F%2Ftracker.coppersurfer.tk%3A6969&amp;tr=udp%3A%2F%2Fexodus.desync.com%3A6969","seeders":14,"leechers":2,"uploader":"Isaac09","files":-1,"time":1415330538,"description":"The.Road.To.El.Dorado.2000.WEB-DL.720p.AC3.H264.FIXED.iSAAC\n\n\nDirector: Bibo Bergeron, Will Finn, \nWriters: Terry Rossio, Ted Elliott\nStars: Kevin Kline, Kenneth Branagh, Rosie Perez\n &lt;a href=&quot;\nhttp://www.imdb.com/title/tt0138749/&quot; rel=&quot;nofollow&quot; target=&quot;_NEW&quot;&gt;\nhttp://www.imdb.com/title/tt0138749/&lt;/a&gt;\n\nTwo swindlers get their hands on a map to the fabled city of gold, El Dorado.\n\nRUNTIME.......: 1h 29mn\nVIDEO CODEC...: H264 (High @3.1)\nFRAMERATE.....: 23.976 fps\nBITRATE.......: 4.4 Mbps\nRESOLUTION....: 1280x718\nSOURCE........: WEB-DL\nGENRE.........: Animation, Adventure, Comedy\n\nAUDIO 1.......: English AC3 @ 384 Kbps\nSUBTITLES.....: English\n\nimageimageimageimageimageimage\n\nFormat : Matroska\nFormat version : Version 4 / Version 2\nFile size : 2.75 GiB\nDuration : 1h 29mn\nOverall bit rate : 4 404 Kbps\nEncoded date : UTC 2014-11-05 22:13:03\nWriting application : mkvmerge v7.2.0 ('On Every Street') 64bit built on Sep 13 2014 15:52:10\nWriting library : libebml v1.3.0 + libmatroska v1.4.1\nDURATION : 01:29:11.278000000\nNUMBER_OF_FRAMES : 1357\nNUMBER_OF_BYTES : 62717\n_STATISTICS_WRITING_APP : mkvmerge v7.2.0 ('On Every Street') 64bit built on Sep 13 2014 15:52:10\n_STATISTICS_WRITING_DATE_UTC : 2014-11-05 22:13:03\n_STATISTICS_TAGS : BPS DURATION NUMBER_OF_FRAMES NUMBER_OF_BYTES\n\nVideo\nID : 1\nFormat : AVC\nFormat/Info : Advanced Video Codec\nFormat profile : &lt;a class=&quot;__cf_email__&quot; href=&quot;/cdn-cgi/l/email-protection&quot; data-cfemail=&quot;99d1f0fef1d9d5aab7a8&quot;&gt;[email&amp;#160;protected]&lt;/a&gt;&lt;script cf-hash='f9e31' type=&quot;text/javascript&quot;&gt;\n/* &lt;![CDATA[ */!function(){try{var t=&quot;currentScript&quot;in document?document.currentScript:function(){for(var t=document.getElementsByTagName(&quot;script&quot;),e=t.length;e--;)if(t[e].getAttribute(&quot;cf-hash&quot;))return t[e]}();if(t&amp;&amp;t.previousSibling){var e,r,n,i,c=t.previousSibling,a=c.getAttribute(&quot;data-cfemail&quot;);if(a){for(e=&quot;&quot;,r=parseInt(a.substr(0,2),16),n=2;a.length-n;n+=2)i=parseInt(a.substr(n,2),16)^r,e+=String.fromCharCode(i);e=document.createTextNode(e),c.parentNode.replaceChild(e,c)}}}catch(u){}}();/* ]]&gt; */&lt;/script&gt;\nFormat settings, CABAC : No\nFormat settings, ReFrames : 2 frames\nCodec ID : V_MPEG4/ISO/AVC\nDuration : 1h 29mn\nBit rate : 3 932 Kbps\nWidth : 1 280 pixels\nHeight : 718 pixels\nDisplay aspect ratio : 16:9\nFrame rate mode : Constant\nFrame rate : 23.976 fps\nColor space : YUV\nChroma subsampling : 4:2:0\nBit depth : 8 bits\nScan type : Progressive\nBits/(Pixel*Frame) : 0.178\nStream size : 2.46 GiB (89%)\nLanguage : English\nDefault : Yes\nForced : No\nColor primaries : BT.709\nTransfer characteristics : BT.709\nMatrix coefficients : BT.709\n\nAudio\nID : 2\nFormat : AC-3\nFormat/Info : Audio Coding 3\nMode extension : CM (complete main)\nFormat settings, Endianness : Big\nCodec ID : A_AC3\nDuration : 1h 29mn\nBit rate mode : Constant\nBit rate : 384 Kbps\nChannel(s) : 6 channels\nChannel positions : Front: L C R, Side: L R, LFE\nSampling rate : 48.0 KHz\nBit depth : 16 bits\nCompression mode : Lossy\nStream size : 246 MiB (9%)\nLanguage : English\nDefault : No\nForced : No\n\nText\nID : 3\nFormat : UTF-8\nCodec ID : S_TEXT/UTF8\nCodec ID/Info : UTF-8 Plain Text\nLanguage : English\nDefault : Yes\nForced : No\n\nMenu\n00:00:00.000 : en:El Dorado (main titles)\n00:04:03.000 : en:Loaded Dice\n00:07:23.000 : en:Stowaways\n00:10:38.000 : en:Overboard\n00:14:02.000 : en:Beached\n00:17:19.000 : en:The Trail We Blaze\n00:20:28.000 : en:Great Big Rock\n00:23:58.000 : en:Entering El Dorado\n00:25:05.000 : en:Stopping the Volcano\n00:30:15.000 : en:Cheldorado\n00:34:46.000 : en:It's Tough to Be a God\n00:37:23.000 : en:A Proper Tribute\n00:42:27.000 : en:Three Days\n00:46:31.000 : en:Age of the Jaguar\n00:48:18.000 : en:Without Question\n00:50:35.000 : en:Tzekel-kan's Advice\n00:52:52.000 : en:Play Ball\n00:57:48.000 : en:No Sacrifices\n00:59:22.000 : en:Gods Don't Bleed\n01:02:40.000 : en:Tulio and Chel - Deal\n01:05:18.000 : en:Jaguar Attacks\n01:10:02.000 : en:Tzekel-kan Emerges\n01:11:34.000 : en:Friends Never Say Goodbye\n01:14:43.000 : en:Cortes Approaches\n01:16:59.000 : en:Got a Wave to Catch\n01:19:46.000 : en:There's No El Dorado Here\n01:21:12.000 : en:Follow That Trail\n01:22:44.000 : en:Someday Out of the Blue (end credits)","torrent":{"xt":"urn:btih:ed17325a3757ddff1d6e1b5fb3571bc013febef5","amp;dn":"The.Road.To.El.Dorado.2000.WEB-DL.720p.AC3.H264.FIXED.iSAAC","amp;tr":["udp%3A%2F%2Ftracker.openbittorrent.com%3A80","udp%3A%2F%2Fopen.demonii.com%3A1337","udp%3A%2F%2Ftracker.coppersurfer.tk%3A6969","udp%3A%2F%2Fexodus.desync.com%3A6969"],"infoHash":"ed17325a3757ddff1d6e1b5fb3571bc013febef5","infoHashBuffer":{"type":"Buffer","data":[237,23,50,90,55,87,221,255,29,110,27,95,179,87,27,192,19,254,190,245]},"announce":[],"urlList":[]}}